# This file uses centimeters as units for non-parametric coordinates.

mtllib tulip.mtl
g default
v -0.668076 15.849056 -1.054250
v -1.565128 17.430841 0.003918
v -0.667178 15.845842 1.066888
v -1.156710 12.826756 -0.636344
v -1.156288 12.825248 -0.000791
v -1.155867 12.823738 0.634762
v -3.141666 15.157638 -1.054250
v -3.194831 16.975307 0.003918
v -3.140768 15.154424 1.066888
v -0.343791 14.492728 1.230605
v 0.024142 15.640226 0.002617
v -0.345053 14.497241 -1.224237
v -2.715659 13.829745 1.230605
v -3.625272 14.620143 0.002617
v -2.716919 13.834257 -1.224237
v -0.889540 15.787152 1.284203
v -2.383753 17.202021 0.846086
v -2.931476 15.212924 1.284203
v -0.543858 12.998061 0.000000
v -1.155527 12.825460 0.000000
v -1.767197 12.652859 0.000000
v -0.889540 15.787152 -1.284203
v -2.383753 17.202021 -0.846086
v -2.931476 15.212924 -1.284203
v -2.714900 13.829957 0.903371
v -1.803085 15.129479 1.894650
v -0.351943 14.495316 0.903371
v -2.714900 13.829957 -0.903372
v -1.803085 15.129479 -1.894650
v -0.351943 14.495316 -0.903372
vt 0.217822 0.439033
vt 0.062688 0.344935
vt 0.255363 0.344513
vt 0.342689 0.448862
vt 0.217627 0.249615
vt 0.342560 0.239665
vt 0.500001 0.397638
vt 0.500000 0.344300
vt 0.744637 0.344502
vt 0.657316 0.448855
vt 0.499999 0.290963
vt 0.657435 0.239658
vt 0.782369 0.249602
vt 0.937312 0.344915
vt 0.782183 0.439020
vt 0.222850 0.805264
vt 0.060247 0.708588
vt 0.255580 0.708112
vt 0.357634 0.817030
vt 0.222625 0.610576
vt 0.357486 0.598657
vt 0.503290 0.763190
vt 0.503290 0.707884
vt 0.751001 0.708112
vt 0.648947 0.817030
vt 0.503290 0.652580
vt 0.649094 0.598657
vt 0.783955 0.610575
vt 0.946334 0.708587
vt 0.783731 0.805263
vn 0.770115 0.490853 -0.407414
vn 0.843611 0.536952 0.001417
vn 0.969087 0.246721 -0.000036
vn 0.980687 -0.183101 -0.068754
vn 0.771173 0.490172 0.406231
vn 0.981043 -0.181793 0.067125
vn 0.267886 -0.958380 0.098720
vn 0.269201 -0.963082 -0.002102
vn -0.956560 -0.291536 -0.000037
vn -0.743605 -0.665075 -0.068754
vn 0.267782 -0.958007 -0.102543
vn -0.744588 -0.664141 0.067124
vn -0.913567 0.019253 0.406232
vn -0.999764 0.021692 0.001416
vn -0.913015 0.020384 -0.407416
vn 0.372523 0.298236 0.878796
vn -0.057153 0.199368 0.978257
vn 0.017091 -0.061115 0.997984
vn 0.307847 -0.369029 0.876954
vn -0.471422 0.061241 0.879779
vn -0.070011 -0.474174 0.877643
vn 0.422037 -0.906579 0.000000
vn 0.271064 -0.962561 0.000000
vn 0.017091 -0.061114 -0.997984
vn 0.307847 -0.369029 -0.876954
vn 0.113610 -0.993525 0.000000
vn -0.070010 -0.474174 -0.877643
vn -0.471422 0.061241 -0.879779
vn -0.057153 0.199369 -0.978256
vn 0.372523 0.298236 -0.878796
s 1
g pPlane3
usemtl initialShadingGroup
f 1/1/1 2/2/2 11/3/3 12/4/4
f 2/2/2 3/5/5 10/6/6 11/3/3
f 4/7/7 5/8/8 14/9/9 15/10/10
f 5/8/8 6/11/11 13/12/12 14/9/9
f 11/3/3 10/6/6 6/11/11 5/8/8
f 12/4/4 11/3/3 5/8/8 4/7/7
f 14/9/9 13/12/12 9/13/13 8/14/14
f 15/10/10 14/9/9 8/14/14 7/15/15
s 2
f 16/16/16 17/17/17 26/18/18 27/19/19
f 17/17/17 18/20/20 25/21/21 26/18/18
f 19/22/22 20/23/23 29/24/24 30/25/25
f 20/23/23 21/26/26 28/27/27 29/24/24
f 26/18/18 25/21/21 21/26/26 20/23/23
f 27/19/19 26/18/18 20/23/23 19/22/22
f 29/24/24 28/27/27 24/28/28 23/29/29
f 30/25/25 29/24/24 23/29/29 22/30/30
g default
v 0.123362 -0.004152 -0.125818
v -0.000602 -0.004152 -0.177165
v -0.124566 -0.004152 -0.125818
v -0.175913 -0.004152 -0.001854
v -0.124566 -0.004152 0.122110
v -0.000602 -0.004152 0.173458
v 0.123362 -0.004152 0.122110
v 0.174710 -0.004152 -0.001854
v 0.618786 2.698317 -0.125818
v 0.495358 2.686795 -0.177165
v 0.371931 2.675272 -0.125818
v 0.320806 2.670499 -0.001854
v 0.371931 2.675272 0.122110
v 0.495358 2.686795 0.173458
v 0.618786 2.698317 0.122110
v 0.669911 2.703090 -0.001854
v 0.552844 5.455381 -0.125818
v 0.431471 5.430169 -0.177165
v 0.310097 5.404957 -0.125818
v 0.259823 5.394514 -0.001854
v 0.310097 5.404957 0.122110
v 0.431471 5.430169 0.173458
v 0.552843 5.455381 0.122110
v 0.603118 5.465824 -0.001854
v 0.010252 8.067469 -0.125818
v -0.111121 8.042256 -0.177165
v -0.232494 8.017044 -0.125818
v -0.282768 8.006601 -0.001854
v -0.232494 8.017044 0.122110
v -0.111121 8.042256 0.173458
v 0.010252 8.067469 0.122110
v 0.060526 8.077911 -0.001854
v -0.532339 10.679556 -0.125818
v -0.653713 10.654344 -0.177165
v -0.775086 10.629132 -0.125818
v -0.825360 10.618689 -0.001854
v -0.775086 10.629132 0.122110
v -0.653713 10.654344 0.173458
v -0.532339 10.679556 0.122110
v -0.482065 10.689999 -0.001854
v -1.074931 13.291643 -0.125818
v -1.196305 13.266432 -0.177165
v -1.317677 13.241219 -0.125818
v -1.367952 13.230776 -0.001854
v -1.317677 13.241219 0.122110
v -1.196306 13.266432 0.173458
v -1.074931 13.291643 0.122110
v -1.024657 13.302087 -0.001854
v -0.000602 -0.004152 -0.001854
v -1.196306 13.266432 -0.001854
v -0.221963 -0.081154 -0.068039
v -0.438846 6.012010 -0.965746
v -0.516014 8.946672 -2.052876
v 0.040876 -0.103917 -0.366842
v 0.116773 5.970538 -1.490368
v 0.205736 12.043707 -3.279290
v 0.286857 -0.087408 -0.037527
v 0.644007 5.998702 -0.900810
v 0.955079 8.928594 -1.964658
v 0.249735 0.040405 0.080629
v 0.345266 5.187464 0.770808
v 0.346920 7.666451 1.773584
v -0.041249 0.021176 0.309946
v -0.259311 5.152431 1.165602
v -0.492082 10.282598 2.744501
v -0.253608 0.035122 0.012657
v -0.725932 5.176222 0.626154
v -1.108338 7.651180 1.577066
vt 0.903287 0.105976
vt 0.914864 0.106868
vt 0.695190 0.226086
vt 0.753017 0.282271
vt 0.862804 0.067630
vt 0.704637 0.232486
vt 0.868109 0.075921
vt 0.713511 0.239917
vt 0.873571 0.083670
vt 0.721483 0.248466
vt 0.879301 0.090801
vt 0.728647 0.257635
vt 0.885740 0.097207
vt 0.735863 0.266723
vt 0.893619 0.102508
vt 0.743938 0.275057
vt 0.536213 0.398026
vt 0.594179 0.453132
vt 0.545233 0.405053
vt 0.553915 0.412555
vt 0.562043 0.420653
vt 0.569723 0.429117
vt 0.577403 0.437566
vt 0.585521 0.445637
vt 0.381186 0.564908
vt 0.439977 0.619548
vt 0.389579 0.572696
vt 0.397968 0.580485
vt 0.406358 0.588283
vt 0.414754 0.596093
vt 0.423159 0.603913
vt 0.431569 0.611734
vt 0.225404 0.731557
vt 0.285073 0.786879
vt 0.233873 0.739268
vt 0.242459 0.747029
vt 0.251076 0.754864
vt 0.259670 0.762777
vt 0.268210 0.770765
vt 0.276679 0.778810
vt 0.074610 0.905815
vt 0.125885 0.946656
vt 0.085354 0.908286
vt 0.094581 0.912397
vt 0.102554 0.917533
vt 0.109551 0.923462
vt 0.115780 0.930168
vt 0.121278 0.937816
vt 0.889311 0.079662
vt 0.099181 0.934346
vt 0.576403 0.066553
vt 0.344700 0.388544
vt 0.302948 0.362036
vt 0.555084 0.052170
vt 0.217880 0.543730
vt 0.046593 0.680859
vt 0.267743 0.324914
vt 0.536264 0.033455
vt 0.137411 0.477268
vt 0.968168 0.461973
vt 0.695943 0.710832
vt 0.659155 0.674621
vt 0.950006 0.442767
vt 0.550795 0.831345
vt 0.362944 0.918389
vt 0.631857 0.631596
vt 0.935300 0.421264
vt 0.481395 0.746011
vt 0.129139 0.956936
vt 0.858022 0.058663
vt 0.293400 0.794920
vt 0.448376 0.627349
vt 0.603186 0.460164
vt 0.762659 0.288484
vn 0.385241 -0.070813 -0.920095
vn 0.385241 -0.070813 -0.920095
vn 0.385742 -0.034334 -0.921968
vn 0.385783 -0.026220 -0.922217
vn -0.385246 0.071194 -0.920064
vn -0.385246 0.071194 -0.920064
vn -0.385760 0.034685 -0.921947
vn -0.385804 0.026520 -0.922200
vn -0.911996 0.169181 -0.373686
vn -0.911996 0.169181 -0.373686
vn -0.922402 0.078214 -0.378229
vn -0.922944 0.070210 -0.378476
vn -0.911996 0.169181 0.373686
vn -0.911996 0.169181 0.373686
vn -0.922944 0.070210 0.378476
vn -0.922402 0.078214 0.378229
vn -0.385246 0.071194 0.920064
vn -0.385246 0.071194 0.920064
vn -0.385804 0.026520 0.922200
vn -0.385760 0.034685 0.921947
vn 0.385241 -0.070813 0.920095
vn 0.385241 -0.070813 0.920095
vn 0.385783 -0.026220 0.922217
vn 0.385742 -0.034334 0.921968
vn 0.912315 -0.167063 0.373859
vn 0.912315 -0.167063 0.373859
vn 0.923038 -0.068395 0.378581
vn 0.922518 -0.076281 0.378342
vn 0.912315 -0.167063 -0.373859
vn 0.912315 -0.167063 -0.373859
vn 0.922518 -0.076281 -0.378341
vn 0.923038 -0.068395 -0.378580
vn 0.380746 0.041364 -0.923754
vn 0.380160 0.045035 -0.923824
vn -0.380752 -0.041316 -0.923754
vn -0.380162 -0.045014 -0.923824
vn -0.918331 -0.102053 -0.382430
vn -0.917883 -0.105761 -0.382500
vn -0.917883 -0.105761 0.382500
vn -0.918332 -0.102053 0.382429
vn -0.380161 -0.045014 0.923824
vn -0.380751 -0.041316 0.923754
vn 0.380160 0.045035 0.923824
vn 0.380747 0.041364 0.923754
vn 0.917863 0.105935 0.382500
vn 0.918305 0.102290 0.382431
vn 0.918305 0.102290 -0.382430
vn 0.917863 0.105935 -0.382499
vn 0.374685 0.077831 -0.923880
vn 0.374685 0.077831 -0.923880
vn -0.374686 -0.077831 -0.923879
vn -0.374686 -0.077831 -0.923879
vn -0.904570 -0.187900 -0.382684
vn -0.904570 -0.187900 -0.382684
vn -0.904570 -0.187900 0.382683
vn -0.904570 -0.187900 0.382683
vn -0.374685 -0.077831 0.923880
vn -0.374685 -0.077831 0.923880
vn 0.374686 0.077831 0.923879
vn 0.374686 0.077831 0.923879
vn 0.904570 0.187900 0.382684
vn 0.904570 0.187900 0.382684
vn 0.904570 0.187900 -0.382683
vn 0.904570 0.187900 -0.382683
vn 0.374684 0.077831 -0.923880
vn 0.374684 0.077831 -0.923880
vn -0.374686 -0.077831 -0.923879
vn -0.374687 -0.077831 -0.923879
vn -0.904569 -0.187900 -0.382685
vn -0.904570 -0.187900 -0.382685
vn -0.904570 -0.187900 0.382683
vn -0.904570 -0.187900 0.382683
vn -0.374686 -0.077831 0.923879
vn -0.374686 -0.077831 0.923879
vn 0.374684 0.077831 0.923880
vn 0.374684 0.077831 0.923880
vn 0.904571 0.187900 0.382682
vn 0.904571 0.187900 0.382682
vn 0.904571 0.187900 -0.382682
vn 0.904571 0.187900 -0.382682
vn 0.374683 0.077830 -0.923880
vn 0.374683 0.077830 -0.923880
vn -0.374686 -0.077831 -0.923879
vn -0.374686 -0.077831 -0.923879
vn -0.904570 -0.187900 -0.382684
vn -0.904570 -0.187900 -0.382684
vn -0.904570 -0.187900 0.382683
vn -0.904570 -0.187900 0.382683
vn -0.374687 -0.077831 0.923879
vn -0.374687 -0.077831 0.923879
vn 0.374683 0.077831 0.923880
vn 0.374683 0.077831 0.923880
vn 0.904572 0.187901 0.382679
vn 0.904572 0.187901 0.382679
vn 0.904571 0.187901 -0.382681
vn 0.904571 0.187901 -0.382681
vn 0.000000 -1.000000 0.000000
vn 0.000000 -1.000000 0.000000
vn 0.000000 -1.000000 0.000000
vn 0.000000 -1.000000 0.000000
vn 0.000000 -1.000000 0.000000
vn 0.000000 -1.000000 0.000000
vn 0.000000 -1.000000 0.000000
vn 0.000000 -1.000000 0.000000
vn 0.000000 -1.000000 0.000000
vn -0.203377 0.979101 -0.000011
vn -0.203384 0.979099 -0.000000
vn -0.203384 0.979099 -0.000002
vn -0.203391 0.979098 -0.000006
vn -0.203388 0.979098 -0.000005
vn -0.203391 0.979098 0.000000
vn -0.203383 0.979099 0.000001
vn -0.203377 0.979101 0.000007
vn -0.203380 0.979100 -0.000005
vn -0.708607 -0.123610 -0.694692
vn -0.619405 -0.189488 -0.761860
vn 0.054297 -0.265212 -0.962660
vn 0.059927 -0.187897 -0.980359
vn -0.501882 -0.262480 -0.824147
vn 0.101362 -0.315220 -0.943590
vn 0.655893 -0.205149 -0.726442
vn 0.761697 -0.130805 -0.634593
vn 0.526342 -0.278003 -0.803542
vn 0.572633 -0.115247 0.811671
vn 0.459568 -0.203595 0.864492
vn -0.128594 -0.270402 0.954121
vn -0.126738 -0.174080 0.976542
vn 0.322747 -0.295296 0.899241
vn -0.144690 -0.332958 0.931774
vn -0.655124 -0.227576 0.720432
vn -0.771893 -0.140553 0.620021
vn -0.517940 -0.307434 0.798262
s 1
g pCylinder2
usemtl initialShadingGroup
f 31/31/31 32/32/32 40/104/33 39/34/34
s 2
f 32/100/35 33/35/36 41/36/37 40/33/38
s 3
f 33/35/39 34/37/40 42/38/41 41/36/42
s 4
f 34/37/43 35/39/44 43/40/45 42/38/46
s 5
f 35/39/47 36/41/48 44/42/49 43/40/50
s 6
f 36/41/51 37/43/52 45/44/53 44/42/54
s 7
f 37/43/55 38/45/56 46/46/57 45/44/58
s 8
f 38/45/59 31/31/60 39/34/61 46/46/62
s 1
f 39/34/34 40/104/33 48/103/63 47/48/64
s 2
f 40/33/38 41/36/37 49/49/65 48/47/66
s 3
f 41/36/42 42/38/41 50/50/67 49/49/68
s 4
f 42/38/46 43/40/45 51/51/69 50/50/70
s 5
f 43/40/50 44/42/49 52/52/71 51/51/72
s 6
f 44/42/54 45/44/53 53/53/73 52/52/74
s 7
f 45/44/58 46/46/57 54/54/75 53/53/76
s 8
f 46/46/62 39/34/61 47/48/77 54/54/78
s 1
f 47/48/64 48/103/63 56/102/79 55/56/80
s 2
f 48/47/66 49/49/65 57/57/81 56/55/82
s 3
f 49/49/68 50/50/67 58/58/83 57/57/84
s 4
f 50/50/70 51/51/69 59/59/85 58/58/86
s 5
f 51/51/72 52/52/71 60/60/87 59/59/88
s 6
f 52/52/74 53/53/73 61/61/89 60/60/90
s 7
f 53/53/76 54/54/75 62/62/91 61/61/92
s 8
f 54/54/78 47/48/77 55/56/93 62/62/94
s 1
f 55/56/80 56/102/79 64/101/95 63/64/96
s 2
f 56/55/82 57/57/81 65/65/97 64/63/98
s 3
f 57/57/84 58/58/83 66/66/99 65/65/100
s 4
f 58/58/86 59/59/85 67/67/101 66/66/102
s 5
f 59/59/88 60/60/87 68/68/103 67/67/104
s 6
f 60/60/90 61/61/89 69/69/105 68/68/106
s 7
f 61/61/92 62/62/91 70/70/107 69/69/108
s 8
f 62/62/94 55/56/93 63/64/109 70/70/110
s 1
f 63/64/96 64/101/95 72/99/111 71/72/112
s 2
f 64/63/98 65/65/97 73/73/113 72/71/114
s 3
f 65/65/100 66/66/99 74/74/115 73/73/116
s 4
f 66/66/102 67/67/101 75/75/117 74/74/118
s 5
f 67/67/104 68/68/103 76/76/119 75/75/120
s 6
f 68/68/106 69/69/105 77/77/121 76/76/122
s 7
f 69/69/108 70/70/107 78/78/123 77/77/124
s 8
f 70/70/110 63/64/109 71/72/125 78/78/126
s 9
f 32/32/127 31/31/128 79/79/129
f 33/35/130 32/100/127 79/79/129
f 34/37/131 33/35/130 79/79/129
f 35/39/132 34/37/131 79/79/129
f 36/41/133 35/39/132 79/79/129
f 37/43/134 36/41/133 79/79/129
f 38/45/135 37/43/134 79/79/129
f 31/31/128 38/45/135 79/79/129
s 10
f 71/72/136 72/99/137 80/80/138
f 72/71/137 73/73/139 80/80/138
f 73/73/139 74/74/140 80/80/138
f 74/74/140 75/75/141 80/80/138
f 75/75/141 76/76/142 80/80/138
f 76/76/142 77/77/143 80/80/138
f 77/77/143 78/78/144 80/80/138
f 78/78/144 71/72/136 80/80/138
s 11
f 81/81/145 82/82/146 85/83/147 84/84/148
f 82/82/146 83/85/149 86/86/150 85/83/147
f 84/84/148 85/83/147 88/87/151 87/88/152
f 85/83/147 86/86/150 89/89/153 88/87/151
s 12
f 90/90/154 91/91/155 94/92/156 93/93/157
f 91/91/155 92/94/158 95/95/159 94/92/156
f 93/93/157 94/92/156 97/96/160 96/97/161
f 94/92/156 95/95/159 98/98/162 97/96/160
