# This file uses meters as units for non-parametric coordinates.

mtllib portaretrato1.mtl
g default
v -1.992793 1.102291 0.398981
v 1.992793 1.102291 0.398981
v -1.992793 6.390266 0.398981
v 1.992793 6.390266 0.398981
v -1.992793 6.390266 0.128561
v 1.992793 6.390266 0.128561
v -1.992793 1.102291 0.122229
v 1.992793 1.102291 0.122229
v -2.125646 6.566532 -0.024210
v 2.125646 6.566532 -0.024210
v 2.125646 0.926025 -0.030541
v -2.125646 0.926025 -0.030541
v 0.002013 1.102291 0.398981
v 0.002013 6.390266 0.398981
v 0.002013 6.390266 0.128561
v 0.002147 6.566532 -0.024210
v 0.002147 0.926025 -0.030541
v 0.002013 1.102291 0.122229
v -0.797168 1.102291 0.398981
v -0.797168 6.390266 0.398981
v -0.797168 6.390266 0.128561
v -0.850311 6.566532 -0.024210
v -0.850311 0.926025 -0.030541
v -0.797168 1.102291 0.122229
v 0.790645 1.102291 0.398981
v 0.790645 1.102291 0.122229
v 0.843354 0.926025 -0.030541
v 0.843354 6.566532 -0.024210
v 0.790645 6.390266 0.128561
v 0.790645 6.390266 0.398981
v -1.992793 3.753074 0.398981
v -1.992793 3.753073 0.075835
v -2.125646 3.753526 -0.076936
v -1.000685 3.754808 0.537049
v 0.002526 3.754808 0.537049
v 0.992499 3.754808 0.537049
v 2.125646 3.753526 -0.076936
v 1.992793 3.753073 0.075835
v 1.992793 3.753074 0.398981
v 0.790645 3.753073 0.246211
v 0.002013 3.753074 0.246211
v -0.797168 3.753074 0.246211
v -1.992793 4.848772 0.097741
v -1.992793 4.848772 0.398981
v -0.797168 4.848772 0.246211
v 0.002013 4.848772 0.246211
v 0.790645 4.848772 0.246211
v 1.992793 4.848772 0.398981
v 1.992793 4.848772 0.097741
v 2.125646 4.922272 -0.055029
v 0.992499 5.130241 0.537049
v 0.002526 5.366721 0.538971
v -1.000685 5.130241 0.537049
v -2.125646 4.922272 -0.055029
v -1.992793 2.835640 0.398981
v -1.992793 2.835640 0.091892
v -2.125646 2.774931 -0.060879
v -1.000685 2.603152 0.537049
v 0.002526 2.429766 0.537049
v 0.992499 2.603152 0.537049
v 2.125646 2.774931 -0.060879
v 1.992793 2.835640 0.091892
v 1.992793 2.835640 0.398981
v 0.790645 2.835640 0.246211
v 0.002013 2.835640 0.246211
v -0.797168 2.835640 0.246211
v -2.581150 7.052004 -0.117393
v -0.975361 6.988774 -0.168593
v -1.000685 7.065283 -0.106073
v 2.592092 7.093596 -0.166921
v 2.442631 4.966436 -0.172450
v 2.501565 5.130241 -0.098218
v -2.553976 0.408131 -0.144649
v -1.000685 0.427274 -0.104555
v -0.953604 0.499465 -0.169918
v -2.501565 5.130241 -0.102307
v -2.431549 5.044069 -0.171023
v 0.002479 7.266487 -0.172725
v 0.992499 7.065283 -0.101882
v 0.922122 6.997121 -0.169051
v 0.002479 0.220003 -0.169375
v 1.052829 0.505653 -0.172505
v 0.992499 0.427274 -0.104200
v 2.625972 0.334934 0.000579
v -2.686578 3.756194 -0.175528
v -2.440129 2.725300 -0.172239
v -2.501565 2.603152 -0.100463
v 2.693827 3.756230 -0.175679
v 2.501565 2.603152 -0.104861
v 2.423709 2.535222 -0.172628
v -0.963675 6.747168 0.537220
v 0.001951 7.019276 0.541222
v 0.958992 6.745578 0.537207
v 2.609908 3.757763 0.537051
v 2.341457 2.372303 0.537051
v 2.341903 5.121429 0.537051
v 2.487449 6.852631 0.533838
v 2.760995 3.755006 -0.111298
v -2.754009 3.754996 -0.111199
v 0.002501 7.334044 -0.111695
v -2.608209 7.084823 -0.056374
v 2.630657 7.140212 -0.105749
v 0.002500 0.153043 -0.107965
v 2.662438 0.293699 0.065667
v -2.579059 0.373735 -0.082684
v -2.451459 5.127516 0.537049
v -2.704254 3.755882 0.537050
v -2.451495 2.607351 0.537049
v -2.555334 0.350209 0.544706
v -2.586602 6.814176 0.577773
v -0.999329 0.439851 0.524589
v 0.002478 0.165510 0.524582
v 1.001328 0.440005 0.523444
v 2.552157 0.276574 0.688358
v -2.017687 6.423294 0.099935
v -2.017687 4.862544 0.069116
v -2.017687 3.753158 0.047209
v -2.017687 2.824265 0.063266
v -2.017687 1.069263 0.093604
v -0.807126 1.069263 0.093604
v 0.002038 1.069263 0.093604
v 0.800521 1.069263 0.093604
v 2.017687 1.069263 0.093604
v 2.017687 2.824265 0.063266
v 2.017687 3.753158 0.047209
v 2.017687 4.862544 0.069116
v 2.017687 6.423294 0.099935
v 0.800521 6.423294 0.099935
v 0.002038 6.423294 0.099935
v -0.807126 6.423294 0.099935
v -1.992793 6.390266 0.290966
v -1.992793 4.848772 0.273535
v -1.992793 3.753073 0.261146
v -1.992793 2.835640 0.270227
v -1.992793 1.102291 0.287385
v -0.797168 1.102291 0.287385
v 0.002013 1.102291 0.287385
v 0.790645 1.102291 0.287385
v 1.992793 1.102291 0.287385
v 1.992793 2.835640 0.270227
v 1.992793 3.753073 0.261146
v 1.992793 4.848772 0.273535
v 1.992793 6.390266 0.290966
v 0.790645 6.390266 0.290966
v 0.002013 6.390266 0.290966
v -0.797168 6.390266 0.290966
vt 0.391996 0.164963
vt 0.341456 0.163142
vt 0.341816 0.152732
vt 0.392369 0.154552
vt 0.741511 0.091247
vt 0.741090 0.081520
vt 0.787452 0.079271
vt 0.787938 0.089000
vt 0.272853 0.890162
vt 0.272708 0.880573
vt 0.329611 0.879076
vt 0.329720 0.888230
vt 0.765741 0.900762
vt 0.712798 0.899977
vt 0.712823 0.891083
vt 0.765803 0.892222
vt 0.393102 0.151772
vt 0.341915 0.149930
vt 0.342343 0.137773
vt 0.396284 0.139719
vt 0.272899 0.891973
vt 0.330469 0.890194
vt 0.333711 0.898711
vt 0.273058 0.900467
vt 0.741613 0.093680
vt 0.788646 0.091546
vt 0.791725 0.102600
vt 0.742110 0.104864
vt 0.766494 0.890386
vt 0.712832 0.889262
vt 0.712865 0.881354
vt 0.769484 0.882409
vt 0.694791 0.537395
vt 0.767605 0.536276
vt 0.766659 0.628160
vt 0.699323 0.644393
vt 0.257126 0.478973
vt 0.297081 0.477721
vt 0.298901 0.533275
vt 0.258886 0.534534
vt 0.216634 0.480273
vt 0.218341 0.535827
vt 0.290247 0.161422
vt 0.290577 0.151009
vt 0.290028 0.148185
vt 0.287643 0.135936
vt 0.630423 0.538502
vt 0.631815 0.629579
vt 0.693939 0.095668
vt 0.691813 0.106971
vt 0.694428 0.093064
vt 0.694064 0.083313
vt 0.765401 0.907034
vt 0.157039 0.537790
vt 0.213579 0.159092
vt 0.213895 0.148681
vt 0.212382 0.145830
vt 0.205824 0.133467
vt 0.622366 0.098319
vt 0.577155 0.884315
vt 0.585724 0.893920
vt 0.623383 0.085921
vt 0.136318 0.881292
vt 0.136430 0.889780
vt 0.134746 0.891749
vt 0.867443 0.098793
vt 0.471131 0.154558
vt 0.419418 0.896238
vt 0.469065 0.167714
vt 0.410077 0.885811
vt 0.272592 0.873439
vt 0.329529 0.872542
vt 0.668865 0.900401
vt 0.668825 0.891845
vt 0.668263 0.890029
vt 0.665824 0.882147
vt 0.629194 0.462170
vt 0.696399 0.449132
vt 0.764670 0.459138
vt 0.225050 0.892063
vt 0.222600 0.900568
vt 0.225614 0.890102
vt 0.225476 0.880913
vt 0.225375 0.874284
vt 0.300310 0.579758
vt 0.260367 0.581057
vt 0.219873 0.582306
vt 0.158659 0.584557
vt 0.213920 0.401577
vt 0.153030 0.403437
vt 0.254632 0.400247
vt 0.391749 0.171882
vt 0.409931 0.871708
vt 0.136240 0.875555
vt 0.303298 0.668137
vt 0.740806 0.074957
vt 0.693820 0.076728
vt 0.623140 0.079324
vt 0.483112 0.756204
vt 0.487287 0.758672
vt 0.635542 0.785848
vt 0.280465 0.107070
vt 0.700446 0.793546
vt 0.700441 0.798880
vt 0.870958 0.795048
vt 0.873863 0.790192
vt 0.904539 0.626945
vt 0.336399 0.916262
vt 0.910626 0.534751
vt 0.916411 0.534748
vt 0.525411 0.269602
vt 0.523606 0.274096
vt 0.488216 0.465503
vt 0.663175 0.866140
vt 0.626205 0.274934
vt 0.686682 0.133727
vt 0.690477 0.262518
vt 0.690716 0.267775
vt 0.490898 0.630152
vt 0.775676 0.866550
vt 0.478275 0.541260
vt 0.483998 0.541082
vt 0.765141 0.785659
vt 0.402381 0.110776
vt 0.753794 0.269319
vt 0.805423 0.128171
vt 0.909560 0.307531
vt 0.904978 0.304245
vt 0.902712 0.458554
vt 0.210317 0.917035
vt 0.637115 0.737756
vt 0.700279 0.750379
vt 0.763013 0.737135
vt 0.865665 0.743914
vt 0.859004 0.626311
vt 0.870044 0.535281
vt 0.857193 0.442242
vt 0.863752 0.299350
vt 0.529503 0.742978
vt 0.534134 0.629919
vt 0.522895 0.540505
vt 0.531625 0.465305
vt 0.523961 0.314591
vt 0.758720 0.311919
vt 0.692491 0.303318
vt 0.627771 0.317235
vt 0.361881 0.578119
vt 0.360532 0.531338
vt 0.668895 0.906574
vt 0.712769 0.906588
vt 0.358643 0.475468
vt 0.356032 0.397005
vt 0.155380 0.481911
vt 0.213369 0.166016
vt 0.294806 0.399012
vt 0.787122 0.072698
vt 0.364501 0.666331
vt 0.290028 0.168345
vt 0.341215 0.170063
vt 0.222494 0.670696
vt 0.263162 0.669435
vt 0.161634 0.672771
vt 0.409989 0.877341
vt 0.469435 0.157302
vt 0.858406 0.075640
vt 0.858068 0.069051
vt 0.585782 0.901837
vt 0.585821 0.907186
vt 0.841051 0.902430
vt 0.841120 0.894467
vt 0.411826 0.887764
vt 0.478486 0.142657
vt 0.860503 0.087908
vt 0.127453 0.900284
vt 0.584119 0.892120
vt 0.616388 0.109756
vt 0.842759 0.892631
vt 0.849868 0.884668
vt 0.530225 0.787861
vt 0.482899 0.318097
vt 0.551868 0.863580
vt 0.862359 0.258856
vt 0.899445 0.131593
vt 0.909225 0.762016
vt 0.447466 0.921036
vt 0.177469 0.100965
vt 0.623743 0.095682
vt 0.858902 0.085398
vt 0.468818 0.174640
vt 0.841002 0.907727
vt 0.909378 0.454009
vt 0.273638 0.930324
vt 0.713018 0.853811
vt 0.481900 0.473351
vt 0.096584 0.925521
vt 0.858938 0.254576
vt 0.757231 0.262636
vt 0.743999 0.147354
vt 0.761011 0.792150
vt 0.343891 0.091884
vt 0.484404 0.624781
vt 0.628633 0.268500
vt 0.592143 0.142014
vt 0.478655 0.320623
vt 0.911139 0.616263
vt 0.509653 0.108740
vt 0.913779 0.758574
vt 0.636601 0.792299
vt 0.874208 0.862519
vt 0.532237 0.792259
vn 0.000000 -1.000000 0.000000
vn 0.000000 -1.000000 0.000000
vn 0.000000 -1.000000 0.000000
vn 0.000000 -1.000000 0.000000
vn 0.000000 1.000000 0.000000
vn 0.000000 1.000000 0.000000
vn 0.000000 1.000000 0.000000
vn 0.000000 1.000000 0.000000
vn -1.000000 0.000000 0.000000
vn -1.000000 0.000000 0.000000
vn -1.000000 -0.000000 0.000000
vn -1.000000 -0.000000 0.000000
vn 1.000000 -0.000000 0.000000
vn 1.000000 0.000000 0.000000
vn 1.000000 0.000000 0.000000
vn 1.000000 0.000000 0.000000
vn 0.000000 -0.654946 -0.755676
vn 0.000000 -0.654946 -0.755676
vn 0.000350 -0.347986 -0.937500
vn -0.008849 -0.373920 -0.927419
vn -0.755900 0.001835 -0.654684
vn -0.757892 0.012625 -0.652258
vn -0.427051 0.007505 -0.904196
vn -0.375102 0.002043 -0.926982
vn 0.000000 0.654946 -0.755676
vn 0.000000 0.654946 -0.755676
vn 0.005076 0.322998 -0.946386
vn -0.000962 0.334948 -0.942236
vn 0.757892 0.012625 -0.652258
vn 0.755900 0.001835 -0.654684
vn 0.380551 0.001088 -0.924760
vn 0.413889 0.009009 -0.910283
vn -0.000000 -0.000352 1.000000
vn 0.000199 -0.000143 1.000000
vn 0.001082 0.000014 0.999999
vn 0.000003 -0.000682 1.000000
vn 0.000000 0.057832 -0.998326
vn 0.054161 0.040321 -0.997718
vn 0.076514 0.000000 -0.997069
vn 0.000000 -0.000000 -1.000000
vn -0.054051 0.040451 -0.997719
vn -0.076360 -0.000000 -0.997080
vn 0.000000 -1.000000 0.000000
vn 0.000000 -1.000000 0.000000
vn 0.000000 -0.654948 -0.755674
vn 0.006294 -0.365483 -0.930797
vn -0.000196 -0.000143 1.000000
vn 0.003592 -0.004224 0.999985
vn 0.000000 0.654946 -0.755676
vn 0.007837 0.360065 -0.932894
vn 0.000000 1.000000 0.000000
vn 0.000000 1.000000 0.000000
vn -0.090026 0.028835 -0.995522
vn -0.126744 -0.000000 -0.991935
vn 0.000000 -1.000000 0.000000
vn 0.000000 -1.000000 0.000000
vn 0.480163 -0.337513 -0.809647
vn 0.177148 -0.146622 -0.973201
vn 0.503376 0.315421 -0.804439
vn 0.199482 0.140489 -0.969778
vn 0.000000 1.000000 0.000000
vn 0.000000 1.000000 0.000000
vn 0.000000 1.000000 0.000000
vn 0.000000 1.000000 0.000000
vn -0.502275 0.316489 -0.804708
vn -0.101428 0.078629 -0.991731
vn -0.479014 -0.338585 -0.809880
vn -0.201347 -0.160747 -0.966240
vn 0.000000 -1.000000 0.000000
vn 0.000000 -1.000000 0.000000
vn 0.126067 0.000000 -0.992022
vn 0.089541 0.028836 -0.995566
vn 1.000000 0.000000 0.000000
vn 1.000000 0.000000 0.000000
vn 0.757517 -0.011062 -0.652722
vn 0.426710 -0.006948 -0.904362
vn 0.002344 -0.001797 0.999996
vn 0.000219 -0.003976 0.999992
vn -0.017212 0.008482 0.999816
vn -0.757517 -0.011062 -0.652722
vn -0.381256 -0.011140 -0.924402
vn -1.000000 0.000000 0.000000
vn -1.000000 0.000000 0.000000
vn 0.085186 -0.028699 -0.995952
vn 0.051506 -0.040135 -0.997866
vn 0.000000 -0.057537 -0.998343
vn -0.051401 -0.040264 -0.997866
vn -0.085647 -0.028698 -0.995912
vn 1.000000 -0.000000 0.000000
vn 1.000000 0.000000 0.000000
vn -0.038172 0.069188 -0.996873
vn -0.063679 0.049391 -0.996747
vn 0.000000 0.098622 -0.995125
vn 0.038250 0.068967 -0.996885
vn 0.063335 0.049393 -0.996769
vn -1.000000 -0.000000 0.000000
vn -1.000000 -0.000000 0.000000
vn 1.000000 -0.000000 0.000000
vn 1.000000 -0.000000 0.000000
vn -1.000000 -0.000000 0.000000
vn -1.000000 -0.000000 0.000000
vn 0.063351 -0.043937 -0.997024
vn 0.038269 -0.061364 -0.997382
vn 0.000000 -0.087796 -0.996139
vn -0.038191 -0.061561 -0.997372
vn -0.063696 -0.043936 -0.997002
vn -0.001540 0.748535 -0.663093
vn -0.001540 0.748535 -0.663093
vn -0.068393 0.705281 -0.705621
vn -0.086936 0.692196 -0.716455
vn -0.175588 0.622921 -0.762324
vn -0.175588 0.622921 -0.762324
vn 0.850406 -0.057511 -0.522974
vn 0.850406 -0.057511 -0.522974
vn 0.823995 -0.025536 -0.566022
vn 0.695206 0.097890 -0.712114
vn 0.682264 0.001599 -0.731104
vn 0.682144 0.002214 -0.731214
vn -0.855298 0.030834 -0.517219
vn -0.855298 0.030834 -0.517219
vn -0.826716 -0.000871 -0.562618
vn -0.715922 -0.100435 -0.690919
vn -0.041767 -0.732450 -0.679538
vn -0.090115 -0.699016 -0.709405
vn 0.002130 -0.674363 -0.738397
vn 0.002676 -0.674464 -0.738303
vn -0.777715 0.006505 -0.628584
vn -0.703348 0.079887 -0.706342
vn -0.653097 -0.000468 -0.757274
vn -0.653097 -0.000494 -0.757274
vn 0.181210 0.624009 -0.760116
vn 0.181210 0.624009 -0.760116
vn 0.018140 0.731140 -0.681986
vn 0.095772 0.684263 -0.722919
vn 0.107245 -0.721384 -0.684182
vn 0.042805 -0.736499 -0.675082
vn 0.000728 -0.744578 -0.667535
vn 0.000728 -0.744578 -0.667535
vn 0.731354 -0.081633 -0.677094
vn 0.748938 -0.020671 -0.662318
vn 0.000531 -0.248822 -0.968549
vn -0.008243 -0.275361 -0.961306
vn -0.292812 0.007464 -0.956141
vn -0.233863 0.001823 -0.972268
vn 0.032125 0.184267 -0.982351
vn -0.001504 0.235385 -0.971901
vn 0.235666 0.000445 -0.971834
vn 0.271593 0.016718 -0.962267
vn 0.000565 -0.259663 -0.965699
vn 0.004645 0.254968 -0.966938
vn 0.130234 -0.125489 -0.983510
vn 0.139870 0.133315 -0.981154
vn -0.038895 0.056467 -0.997647
vn -0.153132 -0.149329 -0.976858
vn 0.280165 -0.007411 -0.959923
vn -0.177088 -0.038573 -0.983439
vn -0.071488 0.901646 0.426525
vn -0.238645 0.869981 0.431487
vn -0.238645 0.869981 0.431487
vn -0.074005 0.901365 0.426690
vn 0.064559 0.899943 0.431201
vn -0.051034 0.904838 0.422686
vn -0.051034 0.904838 0.422686
vn 0.064768 0.899924 0.431211
vn 0.001885 0.000191 0.999998
vn -0.000002 -0.000708 1.000000
vn 0.006217 -0.007181 0.999955
vn 0.973806 0.038416 0.224113
vn 0.975717 -0.000357 0.219037
vn 0.975732 -0.001146 0.218965
vn 0.973792 0.038668 0.224131
vn 0.975261 0.018293 0.220300
vn 0.969047 0.098284 0.226468
vn 0.969047 0.098284 0.226468
vn 0.975550 -0.050753 0.213839
vn 0.974054 -0.070888 0.214927
vn 0.974054 -0.070888 0.214927
vn 0.000597 0.000458 1.000000
vn -0.000001 -0.000000 1.000000
vn -0.034387 0.019267 0.999223
vn 0.001140 0.000875 0.999999
vn 0.240733 0.868686 0.432936
vn 0.240733 0.868686 0.432936
vn -0.816629 -0.038339 -0.575889
vn -0.816629 -0.038339 -0.575889
vn 0.035981 0.908221 0.416942
vn 0.035981 0.908221 0.416942
vn -0.039787 0.761348 -0.647121
vn -0.039787 0.761348 -0.647121
vn 0.756841 0.011132 -0.653504
vn 0.756841 0.011132 -0.653504
vn 0.025875 -0.773709 -0.633013
vn 0.025875 -0.773709 -0.633013
vn -0.997571 0.039913 0.057094
vn -0.996868 -0.067187 0.041713
vn -0.996868 -0.067187 0.041713
vn -0.997466 0.042045 0.057394
vn -0.996962 0.000184 0.077894
vn -0.996962 0.000348 0.077894
vn -0.996700 -0.048041 0.065433
vn -0.996657 -0.048843 0.065490
vn -0.997441 0.040647 0.058812
vn -0.997441 0.040647 0.058812
vn 0.004188 -0.000774 0.999991
vn 0.000000 -0.000000 1.000000
vn 0.006780 -0.006283 0.999957
vn 0.012941 -0.011992 0.999844
vn 0.000000 0.000000 1.000000
vn -0.028752 0.013990 0.999489
vn 0.000315 -0.005757 0.999983
vn 0.056677 -0.998392 0.000768
vn 0.041779 -0.999127 -0.000411
vn -0.000222 -0.999817 0.019106
vn -0.000155 -0.999818 0.019105
vn -0.078376 -0.996922 0.001952
vn -0.079828 -0.996807 0.002088
vn 0.045503 -0.998918 -0.009613
vn 0.045503 -0.998918 -0.009613
vn -0.090702 -0.995819 -0.010859
vn -0.090702 -0.995819 -0.010859
vn -0.052749 0.029555 0.998170
vn 0.003293 -0.003130 0.999990
vn 0.006726 -0.001243 0.999977
vn 0.757828 0.012961 -0.652326
vn 0.485549 -0.332406 -0.808547
vn 0.755936 0.001880 -0.654643
vn 0.757486 -0.011354 -0.652752
vn 0.508556 0.310318 -0.803165
vn 0.000000 0.654948 -0.755674
vn 0.000000 0.654948 -0.755674
vn 0.000000 0.654948 -0.755674
vn -0.507466 0.311384 -0.803442
vn -0.757487 -0.011354 -0.652752
vn -0.755936 0.001880 -0.654643
vn -0.757828 0.012961 -0.652326
vn -0.484409 -0.333482 -0.808788
vn 0.000000 -0.654949 -0.755673
vn 0.000000 -0.654947 -0.755675
vn 0.000000 -0.654951 -0.755672
vn 1.000000 -0.000000 0.000000
vn 1.000000 -0.000000 0.000000
vn 1.000000 -0.000000 0.000000
vn 1.000000 0.000000 0.000000
vn 1.000000 0.000000 0.000000
vn 0.000000 1.000000 0.000000
vn 0.000000 1.000000 0.000000
vn 0.000000 1.000000 0.000000
vn 0.000000 1.000000 0.000000
vn 0.000000 1.000000 0.000000
vn -1.000000 0.000000 0.000000
vn -1.000000 0.000000 0.000000
vn -1.000000 -0.000000 0.000000
vn -1.000000 -0.000000 0.000000
vn -1.000000 0.000000 0.000000
vn 0.000000 -1.000000 0.000000
vn 0.000000 -1.000000 0.000000
vn 0.000000 -1.000000 0.000000
vn 0.000000 -1.000000 0.000000
vn 0.000000 -1.000000 0.000000
s 1
g pCube2
usemtl initialShadingGroup
f 144/1/1 145/2/2 15/3/3 29/4/4
s 2
f 18/5/5 137/6/6 138/7/7 26/8/8
s 3
f 38/9/9 141/10/10 142/11/11 49/12/12
s 4
f 132/13/13 133/14/14 32/15/15 43/16/16
s 5
f 128/17/17 129/18/18 16/19/19 28/20/20
f 125/21/21 126/22/22 50/23/23 37/24/24
f 121/25/25 122/26/26 27/27/27 17/28/28
f 116/29/29 117/30/30 33/31/31 54/32/32
s 9
f 35/33/33 36/34/34 51/35/35 52/36/36
s 10
f 46/37/37 47/38/38 40/39/39 41/40/40
f 45/41/41 46/37/37 41/40/40 42/42/42
s 1
f 145/2/2 146/43/43 21/44/44 15/3/3
s 5
f 129/18/18 130/45/45 22/46/46 16/19/19
s 9
f 34/47/47 35/33/33 52/36/36 53/48/48
s 5
f 120/49/49 121/25/25 17/28/28 23/50/50
s 2
f 24/51/51 136/52/52 137/6/6 18/5/5
s 10
f 44/153/53 45/41/41 42/42/42 31/54/54
s 1
f 146/43/43 131/55/55 5/56/56 21/44/44
s 5
f 130/45/45 115/57/57 9/58/58 22/46/46
f 119/59/59 120/49/49 23/50/50 12/176/60
s 2
f 7/187/61 135/62/62 136/52/52 24/51/51
f 26/8/8 138/7/7 139/165/63 8/188/64
s 5
f 122/26/26 123/173/65 11/66/66 27/27/27
f 127/67/67 128/17/17 28/20/20 10/172/68
s 1
f 143/69/69 144/1/1 29/4/4 6/164/70
s 10
f 39/148/71 40/39/39 47/38/38 48/151/72
s 4
f 133/14/14 134/73/73 56/74/74 32/15/15
s 5
f 117/30/30 118/75/75 57/76/76 33/31/31
s 9
f 58/77/77 59/78/78 35/33/33 34/47/47
f 59/78/78 60/79/79 36/34/34 35/33/33
s 5
f 124/80/80 125/21/21 37/24/24 61/81/81
s 3
f 62/82/82 140/83/83 141/10/10 38/9/9
s 10
f 63/147/84 64/85/85 40/39/39 39/148/71
f 41/40/40 40/39/39 64/85/85 65/86/86
f 42/42/42 41/40/40 65/86/86 66/87/87
f 31/54/54 42/42/42 66/87/87 55/88/88
s 4
f 131/169/89 132/13/13 43/16/16 5/170/90
s 10
f 20/89/91 45/41/41 44/153/53 3/90/92
f 14/91/93 46/37/37 45/41/41 20/89/91
f 30/155/94 47/38/38 46/37/37 14/91/93
f 48/151/72 47/38/38 30/155/94 4/152/95
s 3
f 49/12/12 142/11/11 143/163/96 6/70/97
s 5
f 126/22/22 127/171/67 10/68/68 50/23/23
f 115/177/57 116/29/29 54/32/32 9/178/58
s 4
f 7/61/98 56/74/74 134/73/73 135/167/99
s 5
f 118/75/75 119/175/59 12/60/60 57/76/76
f 123/65/65 124/80/80 61/81/81 11/174/66
s 3
f 139/63/100 140/83/83 62/82/82 8/64/101
s 10
f 2/157/102 25/95/103 64/85/85 63/147/84
f 65/86/86 64/85/85 25/95/103 13/161/104
f 66/87/87 65/86/86 13/161/104 19/160/105
f 55/88/88 66/87/87 19/160/105 1/162/106
s 11
f 67/210/107 101/179/108 69/101/109 68/208/110
f 68/208/110 69/101/109 100/103/111 78/104/112
s 12
f 70/207/113 102/184/114 72/107/115 71/205/116
f 71/205/116 72/107/115 98/109/117 88/110/118
s 13
f 73/204/119 105/180/120 87/113/121 86/194/122
s 14
f 74/115/123 75/202/124 81/117/125 103/118/126
s 13
f 76/119/127 77/201/128 85/121/129 99/122/130
s 16
f 78/104/131 100/103/132 79/123/133 80/199/134
s 14
f 83/125/135 82/197/136 84/196/137 104/182/138
s 12
f 88/110/118 98/109/117 89/129/139 90/191/140
s 5
f 16/19/19 78/200/141 80/124/142 28/20/20
f 50/23/23 71/108/143 88/192/144 37/24/24
f 27/27/27 82/126/145 81/198/146 17/28/28
f 33/31/31 85/193/147 77/120/148 54/32/32
f 22/46/46 68/102/149 78/200/141 16/19/19
f 17/28/28 81/198/146 75/116/150 23/50/50
f 9/58/58 67/186/151 68/102/149 22/46/46
f 23/50/50 75/116/150 73/203/152 12/176/60
f 11/66/66 84/183/153 82/126/145 27/27/27
f 28/20/20 80/124/142 70/206/154 10/172/68
f 57/76/76 86/114/155 85/193/147 33/31/31
f 37/24/24 88/192/144 90/130/156 61/81/81
f 10/68/68 70/185/154 71/108/143 50/23/23
f 54/32/32 77/120/148 67/209/151 9/178/58
f 12/60/60 73/181/152 86/114/155 57/76/76
f 61/81/81 90/130/156 84/195/153 11/174/66
s 17
f 91/131/157 92/132/158 100/103/159 69/101/160
s 18
f 93/133/161 97/134/162 102/106/163 79/123/164
s 9
f 52/36/36 51/35/35 93/133/165 92/132/166
f 53/48/48 52/36/36 92/132/166 91/131/167
s 19
f 96/135/168 94/136/169 98/109/170 72/107/171
f 95/137/172 114/138/173 104/128/174 89/129/175
f 97/134/176 96/135/168 72/107/171 102/184/177
s 9
f 96/135/178 51/35/35 36/34/34 94/136/179
f 94/136/179 36/34/34 60/79/79 95/137/180
f 96/135/178 97/134/181 93/133/165 51/35/35
s 19
f 94/136/169 95/137/172 89/129/175 98/109/170
s 13
f 99/122/130 85/121/129 86/194/122 87/113/121
s 18
f 92/132/182 93/133/161 79/123/164 100/103/183
s 13
f 101/100/184 67/99/185 77/201/128 76/119/127
s 17
f 101/179/186 110/139/187 91/131/157 69/101/160
s 16
f 102/106/188 70/105/189 80/199/134 79/123/133
s 14
f 103/118/126 81/117/125 82/197/136 83/125/135
s 12
f 104/128/190 84/127/191 90/191/140 89/129/139
s 14
f 105/112/192 73/111/193 75/202/124 74/115/123
s 20
f 106/140/194 110/139/195 101/100/196 76/119/197
f 107/141/198 106/140/194 76/119/197 99/122/199
f 108/142/200 107/141/198 99/122/199 87/113/201
f 105/180/202 109/143/203 108/142/200 87/113/201
s 9
f 108/142/204 58/77/77 34/47/47 107/141/205
f 106/140/206 53/48/48 91/131/167 110/139/207
f 107/141/208 34/47/47 53/48/48 106/140/206
f 113/144/209 60/79/79 59/78/78 112/145/210
s 21
f 83/125/211 113/144/212 112/145/213 103/118/214
f 103/118/214 112/145/213 111/146/215 74/115/216
f 74/115/216 111/146/215 109/143/217 105/112/218
f 104/182/219 114/138/220 113/144/212 83/125/211
s 9
f 95/137/180 60/79/79 113/144/209 114/138/221
f 112/145/210 59/78/78 58/77/77 111/146/222
f 111/146/222 58/77/77 108/142/204 109/143/223
s 5
f 43/16/224 116/29/29 115/177/57 5/170/225
f 32/15/226 117/30/30 116/29/29 43/16/224
f 56/74/227 118/75/75 117/30/30 32/15/226
f 7/61/228 119/175/59 118/75/75 56/74/227
f 24/51/229 120/49/49 119/59/59 7/187/228
f 18/5/230 121/25/25 120/49/49 24/51/229
f 26/8/231 122/26/26 121/25/25 18/5/230
f 8/188/232 123/173/65 122/26/26 26/8/231
f 62/82/233 124/80/80 123/65/65 8/64/232
f 38/9/234 125/21/21 124/80/80 62/82/233
f 49/12/235 126/22/22 125/21/21 38/9/234
f 6/70/236 127/171/67 126/22/22 49/12/235
f 29/4/237 128/17/17 127/67/67 6/164/236
f 15/3/238 129/18/18 128/17/17 29/4/237
f 21/44/239 130/45/45 129/18/18 15/3/238
f 5/56/225 115/57/57 130/45/45 21/44/239
s 4
f 44/53/240 132/13/13 131/169/89 3/190/241
f 31/150/242 133/14/14 132/13/13 44/53/240
f 55/149/243 134/73/73 133/14/14 31/150/242
f 135/167/99 134/73/73 55/149/243 1/168/244
s 2
f 136/52/52 135/62/62 1/98/245 19/97/246
f 137/6/6 136/52/52 19/97/246 13/96/247
f 138/7/7 137/6/6 13/96/247 25/156/248
f 139/165/63 138/7/7 25/156/248 2/166/249
s 3
f 2/94/250 63/84/251 140/83/83 139/63/100
f 141/10/10 140/83/83 63/84/251 39/71/252
f 142/11/11 141/10/10 39/71/252 48/72/253
f 143/163/96 142/11/11 48/72/253 4/93/254
s 1
f 30/92/255 144/1/1 143/69/69 4/189/256
f 14/159/257 145/2/2 144/1/1 30/92/255
f 20/158/258 146/43/43 145/2/2 14/159/257
f 3/154/259 131/55/55 146/43/43 20/158/258
