# This file uses centimeters as units for non-parametric coordinates.

mtllib Plato3_UVS.mtl
g default
v -3.324905 0.195215 2.205974
v 2.859290 0.066200 2.129469
v -8.999703 3.702972 8.174298
v 8.750996 3.360076 8.128549
v -8.999703 3.304758 -7.937932
v 8.528336 4.369501 -8.100621
v -3.388165 0.065953 -2.036203
v 2.637206 0.242482 -2.226557
v 2.897982 0.243842 2.145539
v -3.365134 0.373816 2.223044
v -3.428587 0.243518 -2.061277
v 2.670468 0.428566 -2.256339
v 4.345423 0.705252 3.487746
v -4.760232 0.925283 3.559835
v -4.798669 0.702471 -3.275374
v 4.060465 1.066598 -3.507190
v 5.633946 1.292210 4.811936
v -5.999946 1.563850 4.878094
v -6.020870 1.279402 -4.542117
v 5.340568 1.828066 -4.769433
v 7.144995 2.188399 6.395353
v -7.454392 2.505448 6.453098
v -7.464272 2.592679 -6.135046
v 6.874864 3.401731 -6.340006
v 8.484910 3.077229 7.838114
v -8.744245 3.417755 7.886315
v -8.744711 3.025976 -7.625878
v 8.249416 4.042991 -7.798300
v -8.816902 3.908238 8.151421
v 8.574566 3.565042 8.107970
v -8.817146 3.514999 -7.909446
v 8.341298 4.573010 -8.064250
v -8.285244 3.751214 7.785372
v 8.037933 3.411378 7.741758
v -8.286496 3.371048 -7.506485
v 7.775261 4.362189 -7.663207
v -7.256648 3.509034 0.256467
v -7.720414 3.674621 0.285278
v -7.890092 3.471689 0.294968
v -7.680882 3.182144 0.280134
v -6.640944 2.475001 0.202686
v -5.452903 1.351361 0.135486
v -4.422076 0.752570 0.081569
v -3.222443 0.270596 0.023600
v -3.186690 0.093151 0.028950
v 2.604882 0.119181 -0.122468
v 2.637065 0.300781 -0.131193
v 3.836046 0.792916 -0.111438
v 4.866407 1.400506 -0.079586
v 6.060815 2.542993 -0.033971
v 7.111637 3.257903 0.031069
v 7.325254 3.551310 0.046291
v 7.158090 3.757788 0.042861
v 6.691293 3.590664 0.020360
v -5.816054 2.182436 5.133179
v 5.472934 1.906929 5.072611
v -5.798631 2.082331 -4.544339
v 5.129937 2.752316 -4.887792
v -5.228786 1.957817 0.120089
v 4.639239 2.020628 -0.091883
v -3.167802 0.638037 2.485209
v 2.712703 0.499755 2.421706
v -3.250159 0.506770 -2.307764
v 2.455233 0.703789 -2.496669
v -3.022452 0.530597 0.020637
v 2.430359 0.563267 -0.125211
v -0.252745 3.534004 8.151754
v -0.246961 3.739122 8.130010
v -0.241721 3.583754 7.763881
v -0.253214 2.046675 5.103333
v -0.270083 0.569896 2.453917
v -0.335487 0.546695 -0.051232
v -0.438730 0.603855 -2.400850
v -0.413393 2.412478 -4.713581
v -0.371793 3.859449 -7.583713
v -0.362031 4.036352 -7.985728
v -0.362464 3.829428 -8.018100
v -0.370566 3.527127 -7.710842
v -0.398419 2.991353 -6.236044
v -0.422328 1.549766 -4.654130
v -0.433180 0.881901 -3.389605
v -0.423174 0.334703 -2.157397
v -0.419061 0.152941 -2.130003
v -0.332794 0.105978 -0.045664
v -0.277538 0.131641 2.168275
v -0.278877 0.309769 2.184852
v -0.273266 0.816859 3.524312
v -0.267148 1.429995 4.845493
v -0.260297 2.349217 6.424643
v -0.254286 3.249955 7.862563
vt 0.419989 0.604342
vt 0.560507 0.746908
vt 0.554493 0.751250
vt 0.410711 0.766576
vt 0.548382 0.420778
vt 0.503470 0.410602
vt 0.484755 0.404983
vt 0.553536 0.411964
vt 0.775534 0.514276
vt 0.613272 0.823999
vt 0.571869 0.815423
vt 0.584838 0.833938
vt 0.467872 0.413504
vt 0.568852 0.816821
vt 0.765917 0.533317
vt 0.522370 0.786638
vt 0.421038 0.815596
vt 0.625086 0.553224
vt 0.534168 0.463026
vt 0.501596 0.425496
vt 0.464077 0.419226
vt 0.553870 0.832168
vt 0.510126 0.810631
vt 0.431821 0.837514
vt 0.572114 0.548463
vt 0.520739 0.475154
vt 0.496690 0.438190
vt 0.460601 0.424574
vt 0.546701 0.841858
vt 0.503735 0.831524
vt 0.440047 0.851000
vt 0.535689 0.542043
vt 0.509017 0.481589
vt 0.488875 0.450533
vt 0.456842 0.431364
vt 0.542487 0.849433
vt 0.501387 0.846250
vt 0.444553 0.856205
vt 0.518631 0.537998
vt 0.504187 0.480591
vt 0.483557 0.457097
vt 0.454673 0.435946
vt 0.540972 0.853386
vt 0.501104 0.849253
vt 0.445316 0.857005
vt 0.515001 0.537421
vt 0.503190 0.480395
vt 0.482175 0.458544
vt 0.454087 0.437060
vt 0.540806 0.854170
vt 0.501010 0.850738
vt 0.446236 0.857822
vt 0.502373 0.480668
vt 0.481508 0.459231
vt 0.512485 0.537170
vt 0.453632 0.437830
vt 0.540179 0.854538
vt 0.500881 0.853630
vt 0.447825 0.860000
vt 0.500719 0.482249
vt 0.480167 0.460773
vt 0.404174 0.898069
vt 0.452662 0.439254
vt 0.538920 0.855700
vt 0.477468 0.418312
vt 0.477495 0.419723
vt 0.473537 0.429988
vt 0.470515 0.436496
vt 0.467611 0.442107
vt 0.466378 0.444177
vt 0.466100 0.444581
vt 0.466079 0.444986
vt 0.465948 0.445881
vt 0.501535 0.877304
vt 0.453570 0.879766
vt 0.488698 0.496058
vt 0.468499 0.472146
vt 0.428015 0.919793
vt 0.446383 0.447920
vt 0.535041 0.866960
vt 0.461337 0.451601
vt 0.524282 0.904195
vt 0.471810 0.911347
vt 0.464936 0.502034
vt 0.453493 0.481883
vt 0.453893 0.940855
vt 0.440562 0.458331
vt 0.532134 0.889002
vt 0.450388 0.463398
vt 0.433746 0.469374
vt 0.475591 0.399981
vt 0.468316 0.412676
vt 0.537876 0.911506
vt 0.456484 0.523151
vt 0.545573 0.896663
vt 0.553094 0.881790
vt 0.481522 0.531934
vt 0.558444 0.867482
vt 0.507753 0.536636
vt 0.559374 0.865104
vt 0.559923 0.863875
vt 0.560910 0.862273
vt 0.565325 0.856176
vt 0.571650 0.846418
vt 0.576802 0.838714
vt 0.583658 0.834481
vt 0.219079 0.728373
vt 0.229867 0.744776
vt 0.305124 0.825518
vt 0.343591 0.856307
vt 0.376042 0.879171
vt 0.394009 0.889617
vt 0.397813 0.892085
vt 0.400130 0.894109
vt 0.937796 0.219717
vt 0.033832 0.481189
vt 0.483171 0.965280
vt 0.431973 0.514558
vt 0.604668 0.802329
vt 0.225823 0.337793
vt 0.503348 0.408305
vt 0.720733 0.104372
vt 0.443224 0.475184
vt 0.439645 0.493344
vt 0.507672 0.903798
vt 0.505378 0.936524
vn 0.010390 -0.092700 0.995640
vn 0.010393 -0.092576 0.995651
vn -0.016028 -0.900990 0.433545
vn -0.016704 -0.913790 0.405843
vn 0.020158 -0.897968 -0.439599
vn 0.017838 -0.874563 -0.484584
vn -0.026957 -0.149614 -0.988377
vn -0.027023 -0.147713 -0.988661
vn 0.003969 -0.999918 0.012181
vn 0.003580 -0.999978 -0.005657
vn -0.008386 -0.999902 0.011166
vn -0.008045 -0.999549 0.028924
vn 0.974962 -0.189988 -0.115554
vn 0.981197 -0.183325 -0.060361
vn 0.455346 -0.888132 -0.062301
vn 0.419108 -0.904739 -0.076129
vn -0.978670 -0.204400 0.020634
vn -0.976958 -0.206743 -0.053009
vn -0.410086 -0.911983 0.010788
vn -0.445239 -0.894784 0.033511
vn -0.018350 -0.919373 0.392960
vn -0.018505 -0.912302 0.409101
vn -0.461905 -0.886907 -0.006323
vn -0.431893 -0.901368 0.031700
vn 0.028512 -0.897248 -0.440605
vn 0.026289 -0.896538 -0.442185
vn 0.442585 -0.894564 -0.062236
vn 0.476498 -0.874475 -0.090797
vn -0.017681 -0.881517 0.471820
vn -0.017359 -0.873241 0.486980
vn -0.618073 -0.784191 -0.055040
vn -0.608054 -0.793589 0.022087
vn 0.028827 -0.778099 -0.627480
vn 0.028463 -0.794605 -0.606460
vn 0.612899 -0.787434 -0.065590
vn 0.628074 -0.767041 -0.131043
vn -0.016340 -0.855287 0.517896
vn -0.016101 -0.852831 0.521940
vn -0.606957 -0.792084 -0.064856
vn -0.613296 -0.789818 0.007386
vn 0.044180 -0.892877 -0.448128
vn 0.039258 -0.849322 -0.526414
vn 0.621466 -0.779779 -0.075661
vn 0.617819 -0.774642 -0.135012
vn -0.015030 -0.822601 0.568420
vn -0.014439 -0.801734 0.597507
vn -0.704337 -0.705282 -0.080540
vn -0.605762 -0.795646 0.000102
vn 0.046227 -0.871991 -0.487335
vn 0.048040 -0.900974 -0.431206
vn 0.605858 -0.791394 -0.081433
vn 0.708736 -0.690287 -0.145593
vn -0.012054 -0.713311 0.700744
vn -0.012082 -0.714568 0.699461
vn -0.797843 -0.595492 -0.094001
vn -0.802812 -0.596119 0.011646
vn 0.036789 -0.721402 -0.691538
vn 0.036143 -0.712212 -0.701033
vn 0.800537 -0.597330 -0.048349
vn 0.798043 -0.582533 -0.154216
vn 0.004594 0.106009 0.994355
vn 0.004579 0.105274 0.994433
vn 0.004579 0.105266 0.994434
vn 0.004594 0.106009 0.994355
vn -0.018500 0.154551 -0.987812
vn -0.018360 0.152212 -0.988177
vn -0.018360 0.152212 -0.988177
vn -0.018511 0.154733 -0.987783
vn -0.762313 0.646994 -0.016699
vn -0.755855 0.642720 -0.124880
vn -0.226058 0.961234 -0.157884
vn -0.044568 0.998741 -0.023040
vn 0.765464 0.632248 -0.119700
vn 0.767269 0.640892 0.023561
vn 0.024731 0.997565 0.065210
vn 0.242613 0.960237 -0.138146
vn 0.017639 0.920438 -0.390491
vn 0.017452 0.873926 -0.485746
vn 0.225548 0.937017 -0.266696
vn -0.052643 0.914442 0.401279
vn -0.253432 0.956873 0.142009
vn 0.158518 0.955945 0.247065
vn -0.047448 0.895373 0.442782
vn 0.535373 0.844510 -0.013317
vn -0.537259 0.840078 0.074978
vn -0.216080 0.945736 -0.242678
vn -0.759957 0.643813 0.089270
vn -0.670541 -0.735415 0.097672
vn -0.798620 -0.589880 0.119360
vn -0.534705 -0.842070 0.070771
vn -0.677248 -0.730919 0.084218
vn -0.467815 -0.881246 0.067482
vn -0.411334 -0.909738 0.056403
vn -0.974699 -0.200715 0.098361
vn 0.016967 -0.999838 -0.005939
vn 0.016452 -0.999586 -0.023607
vn 0.984603 -0.174736 0.004928
vn 0.425483 -0.903718 -0.047523
vn 0.474253 -0.879663 -0.035738
vn 0.678833 -0.734277 -0.004815
vn 0.534621 -0.844619 -0.028277
vn 0.665287 -0.746451 0.014304
vn 0.794133 -0.605193 0.055624
vn 0.752016 0.635686 0.174287
vn 0.206479 0.953605 0.219098
vn -0.227616 0.932294 0.281105
vn 0.017452 0.868610 -0.495189
vn 0.017443 0.867709 -0.496767
vn -0.042626 0.880859 0.471455
vn -0.037649 0.858309 0.511750
vn 0.578997 0.814313 0.040709
vn 0.560820 0.827785 -0.015893
vn -0.563865 0.822266 0.077036
vn -0.589312 0.799558 0.115838
vn 0.561191 0.824746 -0.069697
vn -0.550514 0.834038 0.036262
vn 0.017530 0.873333 -0.486809
vn 0.017489 0.872241 -0.488764
vn -0.022152 0.796228 0.604592
vn -0.021354 0.787719 0.615665
vn 0.527779 0.849267 0.013995
vn 0.538854 0.842205 -0.018070
vn -0.549620 0.831745 0.078216
vn -0.535821 0.838762 0.096822
vn 0.549453 0.833987 -0.050658
vn -0.562911 0.824350 0.059825
vn 0.009154 0.999919 -0.008855
vn -0.004758 0.999959 0.007742
vn -0.005145 0.999942 -0.009505
vn 0.008832 0.999619 -0.026135
vn -0.019807 0.999477 0.025565
vn -0.020323 0.999757 0.008561
vn 0.004565 0.104539 0.994510
vn 0.004565 0.104539 0.994510
vn 0.017414 0.866574 -0.498746
vn 0.017568 0.874363 -0.484954
vn 0.009453 0.999929 0.007328
vn -0.004124 0.999709 0.023776
vn -0.019298 0.998925 0.042148
vn -0.041960 0.871773 0.488110
vn -0.020533 0.778852 0.626871
vn -0.018641 0.156909 -0.987437
vn -0.018641 0.156909 -0.987437
vn 0.035562 -0.703921 -0.709387
vn 0.044728 -0.851390 -0.522622
vn 0.043810 -0.886069 -0.461478
vn 0.027387 -0.755904 -0.654110
vn 0.027291 -0.882149 -0.470179
vn 0.018880 -0.884177 -0.466770
vn -0.026893 -0.151454 -0.988098
vn 0.015944 -0.999039 -0.040817
vn 0.002976 -0.999748 -0.022247
vn -0.008704 -0.999947 -0.005513
vn 0.010395 -0.092460 0.995662
vn -0.016883 -0.917892 0.396472
vn -0.018558 -0.913583 0.406230
vn -0.017342 -0.872631 0.488072
vn -0.016046 -0.850729 0.525359
vn -0.014386 -0.799499 0.600495
vn -0.012027 -0.712081 0.701994
s 1
g pCube1
usemtl initialShadingGroup
f 1/1/1 85/2/2 86/3/3 10/4/4
s 2
f 11/5/5 82/6/6 83/121/7 7/8/8
s 3
f 45/107/9 84/116/10 85/120/11 1/1/12
s 4
f 2/11/13 46/12/14 47/106/15 9/14/16
s 5
f 45/107/17 1/1/18 10/4/19 44/108/20
s 1
f 10/4/4 86/3/3 87/16/21 14/17/22
s 5
f 44/108/20 10/4/19 14/17/23 43/109/24
s 2
f 15/19/25 81/20/26 82/6/6 11/5/5
s 4
f 9/14/16 47/106/15 48/105/27 13/22/28
s 1
f 14/17/22 87/16/21 88/23/29 18/24/30
s 5
f 43/109/24 14/17/23 18/24/31 42/110/32
s 2
f 19/26/33 80/27/34 81/20/26 15/19/25
s 4
f 13/22/28 48/105/27 49/104/35 17/29/36
s 1
f 18/24/30 88/23/29 89/30/37 22/31/38
s 5
f 42/110/32 18/24/31 22/31/39 41/111/40
s 2
f 23/33/41 79/34/42 80/27/34 19/26/33
s 4
f 17/29/36 49/104/35 50/103/43 21/36/44
s 1
f 22/31/38 89/30/37 90/37/45 26/38/46
s 5
f 41/111/40 22/31/39 26/38/47 40/112/48
s 2
f 27/40/49 78/41/50 79/34/42 23/33/41
s 4
f 21/36/44 50/103/43 51/102/51 25/43/52
s 1
f 26/38/46 90/37/45 67/44/53 3/45/54
s 5
f 40/112/48 26/38/47 3/45/55 39/113/56
s 2
f 5/47/57 77/48/58 78/41/50 27/40/49
s 4
f 25/43/52 51/102/51 52/101/59 4/50/60
s 6
f 3/45/61 67/44/62 68/51/63 29/52/64
s 7
f 77/48/65 5/47/66 31/53/67 76/54/68
s 8
f 39/113/69 3/45/70 29/52/71 38/114/72
f 4/50/73 52/101/74 53/100/75 30/57/76
f 29/52/71 68/51/77 69/58/78 33/59/79
f 76/54/80 31/53/81 35/60/82 75/61/83
f 38/114/72 29/52/71 33/59/79 37/62/84
f 30/57/76 53/100/75 54/98/85 34/64/86
f 31/53/81 38/55/72 37/99/84 35/60/82
f 5/47/87 39/46/69 38/55/72 31/53/81
s 5
f 27/40/88 40/39/48 39/46/56 5/47/89
f 23/33/90 41/32/40 40/39/48 27/40/88
f 19/26/91 42/25/32 41/32/40 23/33/90
f 15/19/92 43/18/24 42/25/32 19/26/91
f 11/5/93 44/15/20 43/18/24 15/19/92
f 7/8/94 45/9/17 44/15/20 11/5/93
s 3
f 7/8/95 83/122/96 84/115/10 45/9/9
s 4
f 47/13/15 46/92/14 8/65/97 12/66/98
f 48/21/27 47/13/15 12/66/98 16/67/99
f 49/28/35 48/21/27 16/67/99 20/68/100
f 50/35/43 49/28/35 20/68/100 24/69/101
f 51/42/51 50/35/43 24/69/101 28/70/102
f 52/49/59 51/42/51 28/70/102 6/71/103
s 8
f 53/56/75 52/49/74 6/71/104 32/72/105
f 54/63/85 53/56/75 32/72/105 36/73/106
f 33/59/79 69/58/78 70/74/107 55/75/108
f 75/61/83 35/60/82 57/76/109 74/77/110
f 37/62/84 33/59/79 55/75/111 59/78/112
f 34/64/86 54/98/85 60/96/113 56/80/114
f 35/60/82 37/99/84 59/97/112 57/76/115
f 54/63/85 36/73/106 58/81/116 60/79/113
f 55/75/108 70/74/107 71/125/117 61/83/118
f 74/77/110 57/76/109 63/84/119 73/85/120
f 59/78/112 55/75/111 61/83/121 65/86/122
f 56/80/114 60/96/113 66/95/123 62/88/124
f 57/76/115 59/97/112 65/94/122 63/84/125
f 60/79/113 58/81/116 64/89/126 66/87/123
s 12
f 71/126/127 72/117/128 65/86/129 61/83/130
f 65/94/129 72/118/128 73/124/131 63/84/132
s 6
f 67/44/62 4/50/133 30/57/134 68/51/63
s 8
f 69/58/78 68/51/77 30/57/76 34/64/86
f 70/74/107 69/58/78 34/64/86 56/80/135
f 71/125/117 70/74/107 56/80/135 62/88/136
s 12
f 62/88/137 66/95/138 72/93/128 71/82/127
f 73/123/131 72/90/128 66/87/138 64/89/139
s 8
f 58/81/140 74/77/110 73/85/120 64/89/141
f 36/73/106 75/61/83 74/77/110 58/81/140
f 32/72/105 76/54/80 75/61/83 36/73/106
s 7
f 6/71/142 77/48/65 76/54/68 32/72/143
s 2
f 78/41/50 77/48/58 6/71/144 28/70/145
f 79/34/42 78/41/50 28/70/145 24/69/146
f 80/27/34 79/34/42 24/69/146 20/68/147
f 81/20/26 80/27/34 20/68/147 16/67/148
f 82/6/6 81/20/26 16/67/148 12/66/149
f 83/121/7 82/6/6 12/66/149 8/65/150
s 3
f 84/91/10 83/7/96 8/65/151 46/92/152
f 85/119/11 84/10/10 46/12/152 2/11/153
s 1
f 86/3/3 85/2/2 2/11/154 9/14/155
f 87/16/21 86/3/3 9/14/155 13/22/156
f 88/23/29 87/16/21 13/22/156 17/29/157
f 89/30/37 88/23/29 17/29/157 21/36/158
f 90/37/45 89/30/37 21/36/158 25/43/159
f 67/44/53 90/37/45 25/43/159 4/50/160
